<svg xmlns="http://www.w3.org/2000/svg" xmlns:xlink="http://www.w3.org/1999/xlink" preserveAspectRatio="xMidYMid" width="125.969" height="20.85" viewBox="0 0 125.969 20.85">
  <defs>
    <style>
      .cls-1 {
        fill: #fff;
        filter: url(#color-overlay-1);
        fill-rule: evenodd;
      }
    </style>

    <filter id="color-overlay-1" filterUnits="userSpaceOnUse">
      <feFlood flood-color="#fff"/>
      <feComposite operator="in" in2="SourceGraphic"/>
      <feBlend in2="SourceGraphic" result="solidFill"/>
    </filter>
  </defs>
  <path d="M125.793,10.786 L116.567,19.955 C116.232,20.347 116.008,20.123 116.120,19.843 C116.344,19.396 116.679,18.893 117.015,17.774 C117.518,16.153 117.518,14.811 117.294,14.028 C117.127,13.302 116.232,11.792 114.275,11.792 C111.759,11.792 111.032,14.084 111.088,14.923 C111.144,15.482 111.088,16.321 111.982,17.104 C112.654,17.663 113.268,17.495 113.436,17.439 C113.604,17.439 113.940,17.216 113.940,17.774 C113.940,18.390 113.380,19.172 113.045,19.564 C112.654,19.899 111.423,20.850 109.634,20.850 C108.572,20.850 107.286,20.403 106.391,19.340 C105.720,18.557 105.273,17.663 104.881,16.377 C104.099,14.028 103.987,12.295 103.987,10.450 C103.987,8.772 104.155,6.928 104.881,4.579 C105.217,3.349 105.832,2.231 106.391,1.504 C107.230,0.441 108.572,-0.006 109.634,-0.006 C111.423,-0.006 112.654,0.944 113.045,1.336 C113.380,1.671 113.940,2.454 113.940,3.125 C113.940,3.628 113.604,3.405 113.436,3.405 C113.268,3.349 112.654,3.181 111.982,3.740 C111.088,4.523 111.144,5.418 111.088,5.921 C111.032,6.816 111.759,9.052 114.275,9.052 C116.232,9.052 117.127,7.598 117.294,6.816 C117.518,6.033 117.518,4.691 117.015,3.125 C116.679,1.951 116.344,1.504 116.120,1.001 C116.008,0.777 116.232,0.497 116.567,0.889 L125.793,10.058 C125.793,10.058 125.961,10.226 125.961,10.450 C125.961,10.618 125.793,10.786 125.793,10.786 ZM102.365,19.955 C102.421,20.123 102.365,20.347 102.086,20.123 L92.301,10.730 C92.301,10.730 92.077,10.562 92.077,10.338 C92.077,10.115 92.301,9.947 92.301,9.947 L102.086,0.553 C102.365,0.330 102.421,0.553 102.365,0.721 C102.309,0.889 102.254,0.944 101.974,1.392 C99.290,5.194 99.346,10.338 99.346,10.338 C99.346,10.338 99.290,15.482 101.974,19.340 C102.254,19.787 102.309,19.843 102.365,19.955 ZM81.957,9.835 C81.342,9.835 80.783,9.388 80.783,8.717 C80.783,8.493 80.895,8.269 81.006,8.046 C79.105,7.934 79.049,10.506 79.049,11.848 C79.049,12.072 78.994,13.022 79.385,13.022 C79.553,13.022 79.720,12.910 79.944,12.910 C80.503,12.910 80.671,13.357 80.671,13.861 C80.671,14.532 80.391,15.035 79.832,15.035 C78.882,15.035 78.211,14.867 77.540,14.867 C76.925,14.867 76.254,15.035 75.639,15.035 C75.080,15.035 74.800,14.532 74.800,13.861 C74.800,13.357 74.968,12.910 75.527,12.910 C75.751,12.910 75.918,13.022 76.086,13.022 C76.477,13.022 76.422,12.072 76.422,11.848 L76.422,9.388 C76.422,9.164 76.477,8.214 76.086,8.214 C75.918,8.214 75.751,8.325 75.527,8.325 C74.968,8.325 74.800,7.878 74.800,7.375 C74.800,6.760 75.080,6.200 75.639,6.200 C76.142,6.256 76.477,6.368 76.813,6.368 C77.204,6.368 77.540,6.256 77.931,6.200 C78.434,6.200 78.434,6.536 78.434,6.928 L78.434,8.214 C78.770,6.816 79.776,6.033 81.230,6.033 C82.404,6.033 83.411,6.928 83.411,8.157 C83.411,8.996 82.907,9.835 81.957,9.835 ZM73.123,15.035 C72.675,15.035 72.284,14.867 71.893,14.867 C71.557,14.867 71.166,15.035 70.830,15.035 C70.215,15.035 70.215,14.476 70.215,14.140 L70.215,13.805 C69.600,14.755 68.370,15.259 67.252,15.259 C66.357,15.259 65.351,14.923 64.847,14.196 C64.400,13.470 64.456,12.463 64.456,11.624 L64.456,9.388 C64.456,9.164 64.512,8.214 64.120,8.214 C63.953,8.214 63.785,8.325 63.561,8.325 C63.002,8.325 62.834,7.878 62.834,7.375 C62.834,6.760 63.114,6.200 64.400,6.200 C64.736,6.256 65.071,6.368 65.462,6.368 C65.854,6.368 66.245,6.256 66.637,6.200 C67.196,6.200 67.084,6.704 67.084,7.151 L67.084,11.177 C67.084,11.512 67.084,12.128 67.308,12.463 C67.475,12.743 67.867,12.966 68.258,12.966 C68.761,12.966 69.209,12.743 69.488,12.295 C69.824,11.736 69.880,11.177 69.880,10.562 L69.880,9.388 C69.880,9.164 69.936,8.214 69.544,8.214 C69.376,8.214 69.209,8.325 68.985,8.325 C68.426,8.325 68.258,7.878 68.258,7.375 C68.258,6.760 68.538,6.200 69.712,6.200 C70.047,6.256 70.383,6.368 70.774,6.368 C71.166,6.368 71.557,6.256 71.948,6.200 C72.563,6.200 72.508,6.592 72.508,7.039 L72.508,11.848 C72.508,12.072 72.452,13.022 72.787,13.022 C72.955,13.022 73.123,12.910 73.346,12.910 C73.905,12.910 74.129,13.357 74.129,13.861 C74.129,14.532 73.794,15.035 73.123,15.035 ZM58.865,15.259 C55.957,15.259 54.392,13.470 54.392,10.618 C54.392,7.710 55.957,5.977 58.865,5.977 C61.604,5.977 63.226,7.766 63.226,10.506 C63.226,13.302 61.828,15.259 58.865,15.259 ZM58.865,8.102 C57.467,8.102 57.131,9.500 57.131,10.618 C57.131,11.624 57.467,13.134 58.697,13.134 C59.312,13.134 59.815,12.966 60.095,12.407 C60.374,11.848 60.486,11.177 60.486,10.618 C60.486,9.500 60.207,8.102 58.865,8.102 ZM54.503,6.200 C53.944,6.200 53.385,5.809 53.385,5.194 C53.385,5.026 53.441,4.914 53.497,4.747 C53.385,4.691 53.329,4.691 53.161,4.691 C52.546,4.691 52.323,5.082 52.323,5.641 C52.323,6.200 52.379,6.200 52.938,6.200 C53.609,6.200 54.112,6.256 54.112,7.095 C54.112,7.878 53.777,8.102 53.050,8.102 C52.379,8.102 52.323,8.046 52.323,8.772 L52.323,11.848 C52.323,12.072 52.267,13.022 52.658,13.022 C52.826,13.022 52.994,12.910 53.217,12.910 C53.777,12.910 53.944,13.357 53.944,13.861 C53.944,14.532 53.665,15.035 52.938,15.035 C52.211,15.035 51.540,14.867 50.869,14.867 C50.198,14.867 49.583,15.035 49.024,15.035 C48.353,15.035 48.073,14.532 48.073,13.861 C48.073,13.357 48.241,12.910 48.800,12.910 C49.024,12.910 49.192,13.022 49.359,13.022 C49.751,13.022 49.695,12.072 49.695,11.848 L49.695,8.772 C49.695,8.157 49.695,8.102 49.136,8.102 C48.465,8.102 48.073,7.934 48.073,7.207 C48.073,6.480 48.353,6.200 49.024,6.200 C49.527,6.200 49.695,6.256 49.695,5.641 C49.751,3.796 51.372,3.013 53.050,3.013 C53.609,3.013 54.280,3.125 54.783,3.405 C55.342,3.684 55.789,4.244 55.789,4.914 C55.789,5.641 55.286,6.200 54.503,6.200 ZM46.676,11.065 L42.873,11.065 C42.538,11.065 42.091,10.953 42.091,11.456 C42.091,12.407 42.873,13.134 43.824,13.134 C45.278,13.134 45.166,11.792 46.508,11.792 C47.123,11.792 47.626,12.183 47.626,12.854 C47.626,13.581 47.067,14.196 46.508,14.587 C45.669,15.091 44.719,15.259 43.768,15.259 C41.028,15.259 39.295,13.413 39.295,10.673 C39.295,7.990 40.972,5.977 43.712,5.977 C44.719,5.977 45.837,6.200 46.564,6.871 C47.402,7.598 47.794,8.772 47.794,9.835 C47.794,10.841 47.682,11.065 46.676,11.065 ZM44.663,8.214 C44.383,7.990 44.103,7.878 43.768,7.878 C43.265,7.878 42.929,7.990 42.594,8.325 C42.426,8.493 42.147,8.772 42.147,8.996 C42.147,9.276 42.706,9.220 42.873,9.220 L44.439,9.220 C44.719,9.220 44.998,9.276 44.998,8.940 C44.998,8.661 44.830,8.381 44.663,8.214 ZM37.617,9.835 C36.946,9.835 36.387,9.388 36.387,8.717 C36.387,8.493 36.499,8.269 36.611,8.046 C34.710,7.934 34.654,10.506 34.654,11.848 C34.654,12.072 34.598,13.022 34.990,13.022 C35.157,13.022 35.325,12.910 35.549,12.910 C36.108,12.910 36.276,13.357 36.276,13.861 C36.276,14.532 35.996,15.035 35.437,15.035 C34.542,15.035 33.871,14.867 33.144,14.867 C32.529,14.867 31.858,15.035 31.243,15.035 C30.684,15.035 30.405,14.532 30.405,13.861 C30.405,13.357 30.628,12.910 31.187,12.910 C31.355,12.910 31.523,13.022 31.747,13.022 C32.082,13.022 32.026,12.072 32.026,11.848 L32.026,9.388 C32.026,9.164 32.082,8.214 31.747,8.214 C31.523,8.214 31.355,8.325 31.187,8.325 C30.628,8.325 30.405,7.878 30.405,7.375 C30.405,6.760 30.684,6.200 31.243,6.200 C31.747,6.256 32.082,6.368 32.418,6.368 C32.809,6.368 33.144,6.256 33.536,6.200 C34.039,6.200 34.039,6.536 34.039,6.928 L34.039,8.214 C34.374,6.816 35.381,6.033 36.835,6.033 C38.009,6.033 39.071,6.928 39.071,8.157 C39.071,8.996 38.512,9.835 37.617,9.835 ZM28.336,9.835 C27.665,9.835 27.162,9.388 27.162,8.717 C27.162,8.493 27.218,8.269 27.329,8.046 C25.428,7.934 25.372,10.506 25.372,11.848 C25.372,12.072 25.317,13.022 25.708,13.022 C25.876,13.022 26.043,12.910 26.267,12.910 C26.826,12.910 26.994,13.357 26.994,13.861 C26.994,14.532 26.714,15.035 26.155,15.035 C25.261,15.035 24.590,14.867 23.863,14.867 C23.248,14.867 22.577,15.035 21.962,15.035 C21.403,15.035 21.123,14.532 21.123,13.861 C21.123,13.357 21.347,12.910 21.906,12.910 C22.129,12.910 22.297,13.022 22.465,13.022 C22.800,13.022 22.745,12.072 22.745,11.848 L22.745,9.388 C22.745,9.164 22.800,8.214 22.465,8.214 C22.297,8.214 22.129,8.325 21.906,8.325 C21.347,8.325 21.123,7.878 21.123,7.375 C21.123,6.760 21.403,6.200 21.962,6.200 C22.465,6.256 22.800,6.368 23.136,6.368 C23.527,6.368 23.863,6.256 24.254,6.200 C24.757,6.200 24.813,6.536 24.813,6.928 L24.813,8.214 C25.093,6.816 26.099,6.033 27.553,6.033 C28.727,6.033 29.790,6.928 29.790,8.157 C29.790,8.996 29.230,9.835 28.336,9.835 ZM18.775,15.259 C17.992,15.259 17.153,14.979 16.874,14.196 C16.035,14.923 15.028,15.259 13.966,15.259 C12.456,15.259 10.947,14.420 10.947,12.743 C10.947,8.717 16.203,10.786 16.203,8.549 C16.203,7.934 15.588,7.598 15.028,7.598 C14.749,7.598 14.469,7.654 14.469,7.990 L14.469,8.325 C14.469,9.108 13.743,9.444 13.016,9.444 C12.233,9.444 11.506,8.829 11.506,7.990 C11.506,6.256 13.854,5.977 15.140,5.977 C16.035,5.977 17.153,6.033 17.880,6.480 C18.886,7.039 18.998,8.046 18.998,9.052 L18.998,12.239 C18.998,12.463 18.942,13.022 19.278,13.022 C19.390,13.022 19.558,13.022 19.669,13.022 C20.228,13.022 20.508,13.470 20.508,13.973 C20.508,14.923 19.558,15.259 18.775,15.259 ZM16.203,11.177 C15.699,11.680 13.743,11.456 13.743,12.351 C13.743,12.910 14.246,13.134 14.693,13.134 C15.699,13.134 16.203,12.519 16.203,11.512 L16.203,11.177 ZM5.635,12.854 C6.138,12.854 6.642,12.798 6.977,12.463 C7.368,12.072 7.368,11.736 7.368,11.233 C7.368,10.841 7.368,10.506 7.592,10.170 C7.816,9.835 8.207,9.723 8.654,9.723 C9.717,9.723 10.220,10.506 10.220,11.512 C10.220,14.084 7.816,15.259 5.523,15.259 C4.013,15.259 2.504,14.811 1.441,13.637 C0.435,12.575 -0.012,10.730 -0.012,9.220 C-0.012,7.878 0.267,6.200 0.994,5.026 C1.889,3.740 3.399,3.013 4.964,3.013 C6.138,3.013 7.089,3.405 7.871,4.244 C7.816,3.573 8.263,3.125 8.934,3.125 C9.605,3.125 9.996,3.573 9.996,4.188 C9.996,4.747 9.884,5.306 9.884,5.921 C9.884,6.368 9.996,6.816 9.996,7.263 C9.996,8.046 9.269,8.437 8.598,8.437 C7.704,8.437 7.256,7.990 7.312,7.095 C7.312,6.592 7.368,6.368 7.033,5.977 C6.642,5.585 6.082,5.474 5.579,5.474 C3.454,5.474 3.231,7.542 3.231,9.220 C3.231,10.953 3.454,12.854 5.635,12.854 Z" class="cls-1"/>
</svg>
