<svg xmlns="http://www.w3.org/2000/svg" xmlns:xlink="http://www.w3.org/1999/xlink" preserveAspectRatio="xMidYMid" width="75.031" height="28.5" viewBox="0 0 75.031 28.5">
  <defs>
    <style>
      .cls-1 {
        fill: #fff;
        filter: url(#color-overlay-1);
        fill-rule: evenodd;
      }
    </style>

    <filter id="color-overlay-1" filterUnits="userSpaceOnUse">
      <feFlood flood-color="#fff"/>
      <feComposite operator="in" in2="SourceGraphic"/>
      <feBlend in2="SourceGraphic" result="solidFill"/>
    </filter>
  </defs>
  <path d="M74.767,7.990 L74.767,7.507 C74.767,7.372 74.686,7.299 74.545,7.299 C74.408,7.299 74.311,7.373 74.311,7.510 L74.311,7.990 L74.061,7.990 L74.061,7.505 C74.061,7.373 73.978,7.299 73.840,7.299 C73.702,7.299 73.606,7.380 73.606,7.510 L73.606,7.990 L73.356,7.990 L73.356,7.139 L73.606,7.139 L73.606,7.268 C73.677,7.193 73.772,7.122 73.939,7.122 C74.096,7.122 74.208,7.181 74.266,7.272 C74.353,7.181 74.469,7.122 74.634,7.122 C74.871,7.122 75.017,7.239 75.017,7.447 L75.017,7.990 L74.767,7.990 ZM72.808,7.724 C72.808,7.800 72.857,7.831 72.942,7.831 C72.998,7.831 73.048,7.821 73.097,7.802 L73.097,7.962 C73.035,7.989 72.967,8.005 72.872,8.005 C72.687,8.005 72.557,7.942 72.557,7.755 L72.557,7.307 L72.419,7.307 L72.419,7.139 L72.557,7.139 L72.557,6.906 L72.808,6.906 L72.808,7.139 L73.101,7.139 L73.101,7.307 L72.808,7.307 L72.808,7.724 ZM56.119,28.516 L59.305,22.507 L51.046,6.889 L55.207,6.889 L61.291,19.021 L67.389,6.889 L71.150,6.889 L60.142,28.516 L56.119,28.516 ZM53.008,18.824 C52.998,21.270 53.083,22.507 53.083,22.507 L49.785,22.525 L49.634,20.314 C48.229,22.094 46.336,23.088 43.019,23.106 C39.702,23.125 35.462,21.644 36.190,16.894 C36.803,12.899 43.361,12.691 45.235,12.681 C46.275,12.677 49.391,12.668 49.391,12.668 C49.410,10.475 48.747,8.692 45.112,8.623 C41.270,8.550 40.976,11.075 40.976,11.075 L37.190,11.075 C37.959,5.564 45.361,6.240 45.361,6.240 C53.083,6.558 52.914,10.868 53.008,12.655 C53.088,14.195 53.017,16.379 53.008,18.824 ZM49.426,15.069 L45.361,15.073 C45.361,15.073 39.608,14.889 39.832,17.953 C40.043,20.824 43.637,20.820 43.637,20.820 C50.084,20.905 49.426,15.069 49.426,15.069 ZM27.844,23.106 C23.097,23.106 21.472,20.432 21.472,20.432 L21.323,22.557 L17.840,22.557 C17.976,21.101 17.997,18.899 17.997,18.899 L17.986,15.313 C17.975,15.524 17.962,15.648 17.962,15.648 L3.625,15.648 C3.625,15.648 3.826,20.661 9.001,20.758 C13.026,20.832 13.751,18.034 13.751,18.034 L17.473,18.026 C17.473,18.026 17.074,23.106 8.985,23.106 C-0.428,23.106 0.007,15.011 0.007,15.011 C-0.038,13.213 0.308,6.288 9.203,6.289 C16.688,6.291 17.854,11.695 17.982,14.288 L17.937,-0.008 L21.522,-0.008 L21.522,8.938 C21.522,8.938 23.447,6.264 27.919,6.289 C32.393,6.314 36.540,9.338 36.441,14.760 C36.341,20.183 32.592,23.106 27.844,23.106 ZM9.115,8.657 C3.999,8.659 3.744,13.192 3.744,13.192 L14.213,13.192 C14.213,13.192 14.213,8.655 9.115,8.657 ZM27.089,8.713 C21.335,8.863 21.541,14.698 21.541,14.698 C21.541,14.698 21.449,20.760 27.098,20.689 C32.747,20.618 32.655,14.823 32.655,14.823 C32.655,14.823 32.842,8.563 27.089,8.713 Z" class="cls-1"/>
</svg>
