<svg xmlns="http://www.w3.org/2000/svg" xmlns:xlink="http://www.w3.org/1999/xlink" preserveAspectRatio="xMidYMid" width="115.937" height="24.37" viewBox="0 0 115.937 24.37">
  <defs>
    <style>
      .cls-1 {
        fill: #fff;
        filter: url(#color-overlay-1);
        fill-rule: evenodd;
      }
    </style>

    <filter id="color-overlay-1" filterUnits="userSpaceOnUse">
      <feFlood flood-color="#fff"/>
      <feComposite operator="in" in2="SourceGraphic"/>
      <feBlend in2="SourceGraphic" result="solidFill"/>
    </filter>
  </defs>
  <path d="M115.951,15.994 L115.951,17.994 L103.987,17.994 L103.987,5.808 L115.951,5.808 L115.951,7.808 L108.487,7.808 L108.487,10.906 L115.951,10.906 L115.951,12.906 L108.487,12.906 L108.487,15.994 L115.951,15.994 ZM97.873,17.994 L97.873,15.046 C97.875,15.014 97.876,14.981 97.876,14.948 C97.876,13.844 96.979,12.949 95.876,12.949 L94.901,12.949 L94.901,17.994 L90.326,17.994 L90.326,11.903 L90.326,5.812 L95.324,5.812 L99.253,5.812 C100.935,5.812 102.298,7.175 102.298,8.857 C102.298,10.539 100.935,11.903 99.253,11.903 C100.901,11.903 102.245,13.212 102.298,14.848 L102.298,14.948 L102.298,17.994 L99.253,17.994 L97.873,17.994 ZM95.876,7.211 L94.901,7.211 L94.901,10.856 L95.876,10.856 C96.981,10.856 97.876,9.961 97.876,8.857 C97.876,7.753 96.865,7.211 95.876,7.211 ZM81.288,17.994 L76.789,17.994 L76.789,5.808 L88.752,5.808 L88.752,7.808 L81.288,7.808 L81.288,10.907 L88.752,10.907 L88.752,12.907 L81.288,12.907 L81.288,17.994 ZM71.676,12.918 L67.754,12.918 L67.754,17.994 L63.255,17.994 L63.255,5.814 L71.676,5.814 C73.638,5.814 75.228,7.404 75.228,9.366 C75.228,11.328 73.638,12.918 71.676,12.918 ZM68.806,7.209 L67.830,7.209 L67.830,10.855 L68.806,10.855 C69.937,10.855 70.806,9.960 70.806,8.856 C70.806,7.751 69.820,7.209 68.806,7.209 ZM56.746,15.994 L51.944,15.994 L51.369,17.994 L46.870,17.994 L50.370,5.808 L58.321,5.808 L61.820,17.994 L57.321,17.994 L56.746,15.994 ZM54.345,7.633 L52.518,13.994 L56.172,13.994 L54.345,7.633 ZM40.926,11.901 L37.950,17.994 L34.975,11.901 L34.975,17.994 L30.475,17.994 L30.475,5.808 L34.975,5.808 L37.950,11.901 L40.926,5.808 L45.426,5.808 L45.426,17.994 L40.926,17.994 L40.926,11.901 ZM12.196,24.375 C5.466,24.375 0.010,18.919 0.010,12.189 C0.010,5.459 5.466,0.003 12.196,0.003 C18.926,0.003 24.382,5.459 24.382,12.189 C24.382,18.919 18.926,24.375 12.196,24.375 ZM12.196,1.164 C6.107,1.164 1.171,6.100 1.171,12.189 C1.171,18.278 6.107,23.214 12.196,23.214 C18.285,23.214 23.221,18.278 23.221,12.189 C23.221,6.100 18.285,1.164 12.196,1.164 ZM12.794,14.551 L12.794,18.286 L11.599,18.286 L11.599,14.551 C11.028,14.551 10.282,14.549 10.000,14.539 L6.036,14.549 C5.700,14.566 5.355,14.489 5.044,14.310 C4.442,13.961 4.118,13.320 4.144,12.674 C4.145,12.578 4.155,12.495 4.167,12.428 C4.308,11.638 4.586,10.860 5.009,10.128 C5.433,9.392 5.972,8.759 6.589,8.241 C7.004,7.935 7.585,7.781 8.119,7.875 C8.270,7.365 8.624,6.944 9.085,6.703 C9.172,6.653 9.254,6.618 9.322,6.594 C10.221,6.269 11.189,6.092 12.196,6.092 C13.208,6.092 14.182,6.271 15.084,6.599 C15.604,6.825 16.067,7.297 16.261,7.860 C16.771,7.743 17.298,7.857 17.714,8.173 C18.332,8.691 18.959,9.392 19.384,10.128 C19.806,10.860 20.084,11.638 20.225,12.428 C20.237,12.495 20.248,12.578 20.248,12.674 C20.275,13.320 19.951,13.961 19.348,14.310 C19.037,14.489 18.692,14.566 18.357,14.549 L14.392,14.539 C14.110,14.549 13.365,14.551 12.794,14.551 ZM8.299,9.376 C8.248,9.263 8.164,9.165 8.049,9.100 C7.831,8.973 7.567,8.998 7.378,9.141 C7.371,9.146 7.365,9.151 7.358,9.156 C6.845,9.587 6.398,10.112 6.044,10.726 C5.692,11.336 5.461,11.982 5.344,12.638 C5.340,12.662 5.339,12.681 5.340,12.697 C5.321,12.924 5.432,13.153 5.642,13.274 C5.754,13.339 5.877,13.364 5.997,13.353 L10.029,13.343 C10.143,13.353 10.257,13.298 10.318,13.193 C10.376,13.091 10.369,12.968 10.308,12.875 L8.299,9.376 ZM14.704,7.734 C14.695,7.730 14.686,7.726 14.676,7.722 C13.902,7.441 13.067,7.288 12.196,7.288 C11.330,7.288 10.499,7.440 9.729,7.718 C9.701,7.728 9.680,7.739 9.664,7.750 C9.410,7.870 9.235,8.128 9.235,8.426 C9.235,8.585 9.284,8.732 9.369,8.853 L11.860,13.142 C11.919,13.268 12.047,13.356 12.196,13.356 C12.342,13.356 12.468,13.272 12.529,13.150 L15.021,8.860 C15.109,8.737 15.161,8.586 15.161,8.423 C15.161,8.113 14.973,7.847 14.704,7.734 ZM18.396,13.353 C18.515,13.364 18.639,13.339 18.750,13.274 C18.961,13.153 19.071,12.924 19.052,12.697 C19.054,12.681 19.052,12.662 19.048,12.638 C18.931,11.982 18.701,11.336 18.348,10.726 C17.994,10.112 17.547,9.587 17.034,9.156 C17.027,9.151 17.021,9.146 17.015,9.141 C16.826,8.998 16.561,8.973 16.343,9.100 C16.229,9.165 16.144,9.263 16.093,9.376 L14.085,12.875 C14.023,12.968 14.016,13.091 14.075,13.193 C14.135,13.298 14.250,13.353 14.362,13.343 L18.396,13.353 Z" class="cls-1"/>
</svg>
