<svg xmlns="http://www.w3.org/2000/svg" xmlns:xlink="http://www.w3.org/1999/xlink" preserveAspectRatio="xMidYMid" width="103.156" height="27.06" viewBox="0 0 103.156 27.06">
  <defs>
    <style>
      .cls-1 {
        fill: #fff;
        filter: url(#color-overlay-1);
        fill-rule: evenodd;
      }
    </style>

    <filter id="color-overlay-1" filterUnits="userSpaceOnUse">
      <feFlood flood-color="#fff"/>
      <feComposite operator="in" in2="SourceGraphic"/>
      <feBlend in2="SourceGraphic" result="solidFill"/>
    </filter>
  </defs>
  <path d="M102.119,9.457 L93.181,9.457 C92.913,9.457 92.696,9.241 92.696,8.975 L92.696,8.331 C92.696,8.064 92.877,7.808 93.200,7.771 C93.477,7.740 102.118,6.892 102.118,6.892 C102.523,6.852 102.857,7.221 102.857,7.629 L102.857,8.720 C102.857,9.128 102.527,9.457 102.119,9.457 ZM97.568,10.893 C101.456,10.893 103.167,13.780 103.167,16.670 C103.167,17.285 102.870,17.647 102.204,17.647 L94.977,17.647 C95.054,18.947 96.086,20.120 97.575,20.120 C98.629,20.120 99.340,19.741 99.827,19.028 C99.979,18.805 100.231,18.657 100.540,18.657 L102.239,18.657 C102.630,18.658 102.818,19.023 102.757,19.301 C102.315,21.358 99.970,22.611 97.591,22.611 C94.116,22.611 91.957,19.830 91.957,16.671 C91.957,13.706 93.973,10.893 97.568,10.893 ZM100.157,15.435 C100.041,14.157 98.895,13.213 97.568,13.213 C96.240,13.213 95.115,14.157 94.998,15.435 L100.157,15.435 ZM90.170,22.400 L88.874,22.400 C88.390,22.400 87.999,22.008 87.999,21.523 L87.999,7.972 C87.999,7.488 88.389,7.095 88.874,7.095 L90.169,7.095 C90.654,7.095 91.044,7.487 91.044,7.971 L91.044,21.522 C91.044,22.006 90.654,22.400 90.170,22.400 ZM86.775,13.416 L84.803,13.415 L84.805,18.430 C84.805,19.415 85.401,20.087 86.467,20.087 L86.646,20.086 C87.015,20.086 87.315,20.382 87.315,20.751 L87.315,21.736 C87.315,22.105 87.016,22.401 86.647,22.401 L85.459,22.401 C83.235,22.401 81.835,20.715 81.835,18.837 L81.834,13.415 L81.197,13.415 C80.858,13.415 80.584,13.141 80.584,12.803 L80.584,11.895 C80.584,11.556 80.860,11.283 81.199,11.283 L81.834,11.284 L81.833,7.950 C81.833,7.478 82.213,7.096 82.686,7.096 L83.950,7.095 C84.421,7.095 84.803,7.481 84.803,7.953 L84.803,11.284 L86.773,11.283 C87.112,11.283 87.388,11.556 87.388,11.895 L87.388,12.803 C87.388,13.142 87.113,13.416 86.775,13.416 ZM79.804,14.474 L78.404,14.474 C78.054,14.474 77.799,14.414 77.667,14.108 C77.393,13.470 76.631,13.100 75.613,13.100 C74.660,13.100 73.897,13.382 73.897,14.208 C73.897,14.754 74.491,14.962 75.128,15.127 C75.485,15.218 77.128,15.636 77.811,15.810 C79.559,16.254 80.633,17.366 80.633,18.971 C80.633,21.743 77.754,22.602 75.687,22.602 C72.772,22.602 70.660,20.953 70.660,19.377 L70.660,19.195 C70.660,18.870 70.945,18.657 71.193,18.657 L72.618,18.657 C73.042,18.657 73.321,18.714 73.481,19.114 C73.756,19.803 74.719,20.234 75.685,20.234 C76.703,20.234 77.637,19.932 77.637,19.047 C77.637,18.485 77.052,18.286 76.396,18.114 C75.789,17.954 74.541,17.646 73.810,17.455 C72.207,17.036 70.903,16.054 70.903,14.403 C70.903,12.246 72.769,10.891 75.612,10.891 C78.361,10.891 80.301,12.344 80.301,13.972 C80.301,14.275 80.036,14.474 79.804,14.474 ZM79.404,9.532 L58.037,9.531 L58.038,21.436 C58.038,21.968 57.608,22.400 57.075,22.400 L55.307,22.400 C54.586,22.400 54.089,22.037 53.795,21.546 C53.578,21.184 48.484,11.981 48.484,11.981 L48.562,21.434 C48.562,21.966 48.132,22.400 47.599,22.400 L46.365,22.400 C45.832,22.400 45.402,21.968 45.402,21.436 L45.401,7.952 C45.401,7.420 45.832,6.988 46.364,6.988 L48.289,6.988 C49.024,6.988 49.555,7.391 49.803,7.828 C50.066,8.293 55.110,17.405 55.110,17.405 L55.030,8.211 C55.030,7.678 55.460,7.246 55.992,7.246 L79.403,7.246 C79.766,7.246 80.063,7.539 80.063,7.903 L80.063,8.875 C80.063,9.239 79.767,9.532 79.404,9.532 ZM40.358,23.125 C39.490,22.647 38.534,22.053 37.550,21.373 L38.622,24.524 C38.897,25.330 38.622,25.425 38.139,25.425 C37.655,25.425 37.219,25.311 36.953,25.482 C36.687,25.653 36.355,26.119 35.956,26.527 C35.605,26.887 35.094,26.792 34.989,26.118 L33.704,18.342 C32.867,17.588 32.071,16.798 31.357,15.991 C31.044,15.858 30.691,15.694 30.380,15.549 C30.333,16.408 30.415,17.255 30.497,17.528 C30.500,17.546 30.499,17.570 30.481,17.587 C30.297,17.771 29.819,18.302 29.819,18.302 C29.819,18.302 29.830,19.664 29.830,19.707 C29.830,19.750 29.816,19.771 29.777,19.825 C29.672,19.964 29.531,20.120 29.372,20.262 C29.044,20.580 27.041,21.970 26.090,22.391 C25.137,22.832 24.141,23.107 23.695,23.255 C23.406,23.283 22.650,23.329 22.119,23.329 C21.613,23.329 19.480,23.274 18.752,23.263 C18.481,23.258 17.553,23.394 16.762,23.549 C16.320,23.635 15.969,23.757 15.695,23.819 C15.516,23.859 15.347,23.857 15.297,23.857 C14.419,23.857 13.570,23.496 13.053,23.216 C12.072,23.691 9.852,25.574 9.454,25.886 C9.056,26.200 8.650,26.470 8.506,26.589 C7.832,26.844 7.124,27.057 6.479,27.057 C6.201,27.057 5.989,27.028 5.883,26.883 C5.608,26.503 4.982,26.062 4.184,26.079 C3.890,26.086 3.702,26.114 3.617,26.152 C3.185,25.950 2.834,25.642 2.469,24.954 C2.104,24.265 1.931,23.238 1.931,22.911 C1.931,22.541 1.926,22.178 1.966,21.851 C2.024,21.395 2.161,20.992 2.293,20.765 C2.492,20.651 2.731,20.502 2.943,20.476 C4.001,20.343 5.471,19.745 6.206,19.456 C5.665,18.949 4.919,17.966 4.783,17.804 C4.399,17.344 4.471,16.872 4.385,16.445 L3.709,15.009 C3.615,14.838 3.610,14.802 3.731,14.667 C3.870,14.512 4.041,14.340 4.041,14.167 C4.041,14.063 3.682,13.530 3.610,13.430 C3.539,13.330 3.550,13.257 3.716,13.152 C3.973,12.991 4.108,12.858 4.108,12.498 C4.108,12.345 4.051,12.185 4.051,12.043 C4.051,11.181 5.608,10.704 7.939,10.439 C8.157,10.145 8.380,9.860 8.609,9.584 C7.856,9.628 6.044,9.841 5.580,9.887 L5.929,9.268 C6.550,9.352 8.374,9.177 9.076,9.038 C9.126,8.982 9.175,8.926 9.225,8.871 C8.566,8.113 6.794,6.322 6.640,6.160 C6.640,6.160 6.799,5.726 6.960,5.526 C7.369,6.374 8.873,7.926 9.610,8.457 C11.019,6.973 12.496,5.815 13.654,5.057 C14.189,4.707 14.387,4.450 14.702,3.840 C15.299,2.680 15.932,1.373 17.438,1.373 C18.064,1.373 18.473,1.600 18.897,2.098 L20.520,2.616 L19.465,3.193 L20.511,3.620 C19.019,4.186 17.461,5.007 17.004,6.411 C17.395,6.510 17.706,6.715 17.955,6.940 L19.383,7.471 L18.335,8.052 L19.278,8.571 C17.949,8.983 17.086,9.517 16.486,10.152 C17.415,10.142 18.350,10.108 19.274,10.108 C22.028,10.108 24.054,10.230 25.452,10.468 C24.384,8.440 24.773,7.472 24.204,6.579 C23.732,5.842 21.446,6.301 21.066,6.380 L21.728,5.285 L20.424,5.389 L21.529,4.075 C21.649,3.905 21.707,3.748 21.834,3.293 C22.029,2.601 22.624,1.420 24.365,1.420 C26.297,1.420 26.896,2.983 27.738,3.662 C28.694,4.432 29.947,5.513 31.065,6.593 C31.610,6.272 32.292,5.749 32.761,5.029 C33.305,4.192 33.746,3.156 33.747,2.217 L36.052,2.435 C35.728,2.846 35.193,3.785 34.991,4.458 C34.885,4.810 34.890,5.089 35.018,5.185 C35.262,5.368 35.690,5.076 36.105,4.631 C36.691,4.002 37.264,3.053 37.517,2.714 L39.184,4.097 C38.443,4.489 37.725,4.938 37.868,5.190 C37.999,5.419 38.473,5.350 38.993,5.191 C39.420,5.060 39.872,4.863 40.230,4.653 L40.230,6.906 C39.426,6.895 38.066,7.045 36.755,7.443 C37.066,7.883 37.961,8.044 38.530,8.123 L38.245,9.951 C36.811,9.349 35.705,8.998 33.966,8.965 C33.817,9.121 33.686,9.289 33.576,9.466 C35.902,12.862 38.791,19.352 40.069,22.324 C40.193,22.612 40.281,22.904 40.358,23.125 ZM36.956,24.401 C37.057,24.783 37.219,24.903 37.664,24.923 C38.110,24.941 38.205,24.771 38.110,24.477 L36.977,20.970 C36.622,20.715 36.266,20.449 35.910,20.175 L36.956,24.401 ZM35.435,25.615 C35.521,26.013 35.862,25.947 36.137,25.596 C36.412,25.245 36.516,25.150 36.412,24.685 L35.321,19.712 C34.968,19.430 34.617,19.139 34.272,18.842 L35.435,25.615 ZM19.274,10.762 C18.181,10.762 17.068,10.802 15.969,10.815 C15.524,11.512 15.276,12.301 15.024,13.162 L14.521,13.048 C15.204,10.449 16.380,9.089 18.278,8.495 L17.614,8.088 L18.406,7.603 L17.680,7.367 C17.339,7.044 16.912,6.873 16.513,6.873 C15.703,6.873 15.289,7.444 14.906,8.211 C14.711,8.602 14.323,9.007 13.507,9.558 L9.372,12.327 L8.756,12.242 L13.232,9.121 C13.791,8.742 14.176,8.542 14.417,8.041 C14.775,7.299 15.303,6.413 16.398,6.354 C16.966,4.888 18.370,3.889 19.397,3.601 L18.610,3.288 L19.380,2.766 L18.619,2.539 C18.344,2.197 17.943,1.922 17.453,1.922 C16.402,1.922 15.797,2.929 15.157,4.238 C14.894,4.776 14.723,5.063 13.972,5.555 C11.903,6.909 9.445,9.132 7.081,12.555 L6.697,12.342 C6.929,11.930 7.177,11.532 7.437,11.147 C5.928,11.333 4.989,11.589 4.989,12.043 C4.989,12.632 6.440,13.339 6.946,13.339 C7.358,13.339 7.937,12.888 8.553,12.888 C9.596,12.888 11.475,13.737 12.338,14.344 L11.674,14.605 C10.701,14.125 9.666,13.612 8.764,13.612 C8.359,13.612 8.008,13.732 7.752,13.865 C7.490,14.001 7.159,14.149 6.718,14.276 C6.547,14.168 5.673,13.762 5.215,13.468 C5.026,13.347 4.877,13.221 4.805,13.138 C4.778,13.305 4.734,13.486 4.698,13.572 C4.662,13.658 4.705,13.708 4.741,13.799 C5.101,14.732 6.666,15.539 7.899,15.539 C8.046,15.539 8.268,15.539 8.376,15.507 L8.709,15.894 C8.496,16.084 8.162,16.279 7.799,16.279 C7.560,16.279 7.345,16.242 7.103,16.196 C6.254,16.034 5.428,15.624 4.868,15.079 C4.741,14.959 4.641,14.866 4.549,14.738 C4.536,14.831 4.501,14.948 4.500,15.073 C4.498,15.222 4.538,15.384 4.634,15.535 C4.943,16.017 5.392,16.430 5.908,16.801 C6.308,17.090 6.933,17.453 7.252,17.584 C7.434,17.659 8.266,17.763 8.847,17.763 C9.907,17.763 10.571,17.472 10.820,17.151 C11.019,16.895 11.185,16.851 11.492,16.851 C12.139,16.851 13.999,17.490 14.533,17.739 L14.131,17.946 C14.010,18.003 13.931,18.018 13.739,17.961 C13.547,17.904 12.508,17.488 11.820,17.488 C11.180,17.488 10.844,17.940 10.844,18.252 C10.844,18.704 11.876,18.878 12.968,18.878 C13.743,18.878 15.432,18.695 16.008,18.602 L16.414,19.049 C15.582,19.248 14.173,19.414 12.871,19.414 C12.214,19.414 11.029,19.376 10.602,19.210 C10.328,19.103 10.304,18.738 9.959,18.577 C9.445,18.337 8.823,18.446 8.297,18.446 C7.928,18.446 7.534,18.408 7.231,18.317 C6.885,18.206 6.535,18.007 6.228,17.832 C6.010,17.709 5.778,17.588 5.594,17.449 C5.404,17.304 5.258,17.124 5.105,16.962 C5.158,17.184 5.302,17.629 5.383,17.738 C5.526,17.927 6.056,18.398 6.166,18.535 C6.417,18.847 6.611,19.065 7.135,19.062 C7.491,19.061 7.685,18.892 8.117,18.892 C8.788,18.892 9.727,19.397 10.232,19.746 C10.700,20.069 10.958,20.351 11.591,20.351 C11.771,20.351 12.056,20.290 12.330,20.290 C12.786,20.290 13.369,20.543 13.675,20.849 C14.049,21.222 14.296,21.742 14.377,22.216 L13.915,22.552 C13.660,21.723 13.153,20.917 12.266,20.917 C11.626,20.917 11.394,21.225 11.270,21.429 C10.516,20.689 9.274,19.593 8.022,19.593 C7.510,19.593 6.974,19.783 6.779,19.793 C5.848,20.216 3.933,20.945 2.976,21.073 C2.827,21.507 2.550,22.371 2.550,22.919 C2.550,23.833 3.133,24.981 3.721,25.337 C4.679,25.151 5.617,25.650 5.997,26.161 C6.118,26.325 6.307,26.340 6.590,26.337 C7.002,26.332 7.372,26.242 7.676,26.100 C7.860,26.013 8.048,25.928 8.184,25.665 C8.281,25.474 8.593,24.941 8.746,24.256 C8.804,23.995 8.866,23.658 8.852,23.417 C8.830,23.032 8.816,22.859 8.782,22.776 C8.696,22.578 8.365,22.206 8.162,22.137 C7.818,22.017 7.240,21.884 7.036,21.813 C6.857,21.751 6.694,21.786 6.571,21.822 C6.460,21.856 4.961,22.272 4.719,22.364 L6.111,21.443 L5.014,21.233 L5.965,20.924 L6.989,21.233 C7.117,21.262 7.211,21.288 7.401,21.325 C8.050,21.452 9.201,21.890 9.613,22.578 C9.656,22.649 9.650,22.703 9.642,22.770 C9.599,23.146 9.144,25.032 9.102,25.323 C9.488,24.767 10.616,24.260 10.877,23.724 C11.389,24.094 12.269,22.873 12.665,22.676 C12.866,22.576 13.068,22.486 13.149,22.463 C13.706,22.733 14.614,23.084 15.306,23.084 C15.676,23.084 15.755,22.956 16.074,22.875 C16.776,22.698 18.986,22.541 20.058,22.541 C21.130,22.541 22.965,22.595 23.316,22.605 C23.565,22.519 23.948,22.406 24.227,22.327 C25.158,22.064 25.754,21.826 26.386,21.473 C27.322,20.952 28.092,20.322 28.770,19.586 C28.855,19.494 28.883,19.385 28.927,19.298 C28.963,19.223 29.058,18.985 29.058,18.886 C29.058,18.745 28.836,18.612 28.333,18.612 C27.764,18.612 27.266,18.792 26.801,19.048 L26.529,18.971 C27.024,18.408 28.399,17.981 29.120,17.867 C29.486,17.302 29.876,16.392 29.895,15.323 C29.723,15.244 29.596,15.187 29.545,15.172 C29.190,15.599 28.848,16.076 28.450,16.417 C28.238,16.598 28.094,16.702 27.781,16.702 C27.685,16.702 27.565,16.700 27.454,16.637 C27.334,16.571 27.223,16.436 27.098,16.246 C27.004,16.102 26.865,15.918 26.742,15.713 C26.488,15.286 26.215,14.751 25.967,14.318 C25.690,13.832 25.452,13.469 25.420,13.408 C25.370,13.316 25.235,13.202 25.235,13.202 C25.099,13.422 25.000,13.849 25.000,14.084 L24.516,13.921 C24.580,13.601 24.708,13.188 24.779,12.989 C24.779,12.818 24.587,12.590 24.431,12.590 C24.210,12.590 23.983,12.832 23.869,13.295 L23.378,13.508 C23.435,12.761 23.691,11.943 24.431,11.943 C25.028,11.943 25.398,12.398 25.682,12.825 C25.967,13.251 26.899,14.525 27.098,14.774 L27.632,13.622 C27.073,12.960 26.444,12.124 25.914,11.270 C24.608,10.885 22.188,10.762 19.274,10.762 ZM37.835,9.236 L37.939,8.544 C37.283,8.457 36.457,8.085 36.108,7.662 C35.537,7.877 34.997,8.144 34.541,8.471 C35.823,8.498 37.107,8.870 37.835,9.236 ZM39.708,6.346 L39.708,5.450 C39.462,5.526 39.196,5.612 38.950,5.670 C38.601,5.754 38.281,5.832 38.010,5.825 C37.739,5.818 37.519,5.710 37.417,5.565 C37.157,5.192 37.399,4.630 38.252,4.104 L37.579,3.544 C37.059,4.218 36.548,4.961 36.027,5.406 C35.554,5.809 35.059,6.011 34.658,5.711 C34.442,5.551 34.361,5.477 34.340,5.057 C34.369,4.440 34.744,3.497 35.075,2.890 L34.278,2.796 C34.136,3.726 33.755,4.519 33.347,5.173 C32.838,5.989 32.183,6.561 31.508,7.030 C32.079,7.613 32.662,8.213 33.201,8.939 C34.454,7.269 37.766,6.485 39.708,6.346 ZM38.072,19.248 C35.303,17.682 32.505,14.806 31.200,12.336 L31.774,12.403 C32.988,14.549 35.888,17.413 37.600,18.246 C36.034,14.921 33.996,10.710 32.405,8.898 C30.432,6.652 28.277,4.913 27.248,4.009 C26.233,3.117 25.815,1.998 24.355,1.998 C23.150,1.998 22.517,2.866 22.275,3.741 C22.225,3.912 22.197,4.019 22.076,4.196 L21.507,4.879 L22.738,4.730 L22.026,5.726 C22.026,5.726 23.955,5.293 24.630,6.209 C25.357,7.197 24.888,8.306 26.081,10.463 C26.606,11.411 27.875,13.116 28.300,13.494 L27.468,15.243 C27.532,15.535 27.657,15.705 27.717,15.798 C27.845,15.998 27.988,15.983 28.179,15.805 C28.267,15.724 28.549,15.495 28.822,15.210 C29.059,14.963 29.289,14.663 29.382,14.511 C29.653,14.632 30.159,14.874 30.566,15.054 C28.819,12.901 27.148,10.290 26.422,8.514 C26.123,7.781 26.709,7.535 26.991,8.258 C27.760,10.221 30.008,13.692 31.658,15.513 C33.566,17.619 37.064,20.664 39.340,21.887 C39.011,21.244 38.575,20.319 38.072,19.248 ZM23.790,4.131 C23.531,4.131 23.320,3.921 23.320,3.662 C23.320,3.402 23.531,3.192 23.790,3.192 C24.049,3.192 24.259,3.402 24.259,3.662 C24.259,3.921 24.049,4.131 23.790,4.131 ZM25.455,14.890 L25.412,15.428 C25.123,15.269 24.724,15.160 24.373,15.160 C24.128,15.160 23.908,15.179 23.752,15.260 C23.577,15.350 23.471,15.487 23.307,15.621 C23.132,15.764 22.894,15.903 22.581,16.018 C22.268,16.134 21.881,16.212 21.304,16.212 C20.542,16.212 20.129,16.084 19.892,16.054 C19.892,16.054 19.792,15.648 19.745,15.501 C19.745,15.501 19.864,15.462 20.020,15.462 C20.276,15.462 20.909,15.533 21.171,15.533 C22.158,15.533 22.523,15.222 22.813,14.960 C23.061,14.737 23.315,14.556 23.987,14.556 C24.580,14.556 25.260,14.795 25.455,14.890 ZM20.895,14.831 C20.511,14.831 20.102,14.802 19.721,14.766 C19.050,14.702 18.468,14.613 18.268,14.613 C17.725,14.613 16.943,14.866 16.421,15.308 C16.421,15.308 16.068,15.210 15.944,15.201 C16.185,14.876 16.496,14.605 16.741,14.440 C17.224,14.114 17.729,13.935 18.493,13.889 C18.701,13.876 19.125,13.836 19.361,13.846 C19.574,13.856 19.935,13.870 20.267,13.932 C20.501,13.975 20.721,14.041 20.903,14.069 C21.013,14.086 21.399,14.081 21.533,14.059 C22.074,13.975 22.723,13.766 23.065,13.579 L23.207,14.099 C22.477,14.472 21.651,14.831 20.895,14.831 ZM14.126,14.824 C13.823,14.945 13.716,15.121 13.716,15.372 C13.716,15.734 14.120,15.876 14.572,16.013 C14.837,16.093 15.136,16.113 15.387,16.113 C15.696,16.113 16.291,15.996 16.877,15.867 C17.586,15.711 18.244,15.525 18.436,15.454 L18.692,15.914 C17.904,16.180 17.098,16.433 16.349,16.586 C15.927,16.671 15.524,16.725 15.164,16.725 C14.564,16.725 13.912,16.472 13.376,16.217 C12.924,16.002 12.520,15.789 12.160,15.789 C11.755,15.789 11.374,15.929 10.998,16.143 C10.814,16.248 10.260,16.630 9.767,16.824 C9.388,16.974 9.080,17.057 8.696,17.057 C8.354,17.057 8.150,17.009 7.973,16.871 L8.567,16.507 C8.643,16.583 8.781,16.597 8.866,16.597 C8.951,16.597 9.053,16.586 9.286,16.489 C9.420,16.433 9.614,16.313 9.727,16.240 C9.962,16.088 10.040,15.999 10.133,15.927 C10.313,15.784 10.379,15.596 10.149,15.391 C10.041,15.294 9.929,15.197 9.785,15.109 C9.579,14.985 9.431,14.865 9.059,14.865 C8.620,14.865 8.311,14.985 8.141,15.073 L7.849,14.874 C8.013,14.738 8.335,14.523 8.653,14.390 C8.818,14.321 9.005,14.287 9.141,14.287 C9.468,14.287 9.750,14.424 10.025,14.570 C10.459,14.802 10.948,15.074 11.322,15.074 C11.465,15.074 11.602,15.041 11.763,15.041 C12.134,15.041 12.489,15.207 12.693,15.207 C12.816,15.207 12.902,15.097 12.983,14.980 C13.186,14.686 13.469,14.468 13.828,14.317 C14.215,14.156 14.680,14.091 15.186,14.091 C15.584,14.091 15.966,14.148 16.165,14.191 C16.165,14.191 15.861,14.557 15.785,14.638 C15.383,14.638 14.617,14.625 14.126,14.824 ZM12.765,12.953 L12.573,12.747 C13.109,12.249 13.676,11.455 13.768,10.990 C13.853,10.556 14.477,10.625 14.358,11.097 C14.207,11.699 13.469,12.427 12.765,12.953 ZM18.201,16.824 C18.799,16.730 19.482,16.658 19.875,16.526 C20.056,16.980 20.411,17.468 20.924,17.468 C21.111,17.468 21.418,17.326 21.727,17.190 C22.074,17.037 22.422,16.870 22.603,16.789 C22.798,16.703 23.431,16.425 23.967,16.186 C24.172,16.095 24.735,15.827 24.767,15.810 L25.128,16.004 C25.020,16.478 24.839,17.061 24.637,17.477 C24.558,17.641 24.478,17.776 24.393,17.873 C24.236,18.050 23.983,18.284 23.653,18.518 C23.292,18.774 22.852,19.037 22.386,19.304 C22.022,19.513 21.657,19.726 21.287,19.896 L21.094,19.547 C21.666,19.224 22.246,18.815 22.756,18.437 C22.998,18.258 23.232,18.077 23.399,17.925 C23.523,17.811 23.600,17.717 23.662,17.626 C23.814,17.403 24.061,16.967 24.136,16.758 C23.923,16.862 23.117,17.242 22.756,17.431 C22.349,17.645 21.690,17.982 21.320,18.157 C21.029,18.294 20.769,18.369 20.582,18.369 C20.169,18.369 19.982,18.072 19.880,17.892 C19.620,17.426 19.340,17.384 18.604,17.374 C17.751,17.364 16.580,17.716 15.882,18.200 L15.196,17.885 C16.148,17.403 17.604,16.919 18.201,16.824 ZM19.169,18.906 C19.349,18.906 19.359,18.987 19.410,19.070 C19.553,19.298 20.673,20.897 20.787,21.020 C21.737,20.727 22.710,20.300 23.271,19.761 C23.856,19.198 24.342,18.545 24.812,18.040 C24.993,17.845 25.216,17.668 25.327,17.609 C25.813,17.351 27.324,17.328 27.959,17.357 L27.582,17.890 C26.463,17.890 25.837,18.005 25.555,18.217 C25.435,18.307 25.255,18.488 25.084,18.711 C24.702,19.210 24.285,19.891 24.118,20.024 C24.445,20.252 24.804,20.451 25.372,20.451 C26.321,20.451 27.000,19.857 27.372,19.523 L27.691,19.712 C27.456,20.018 27.186,20.331 26.842,20.564 C26.461,20.824 25.981,20.992 25.697,21.070 C25.147,20.965 23.935,20.721 23.651,20.664 C22.603,21.091 20.895,21.782 20.322,21.954 C20.239,21.979 20.105,21.999 19.935,22.016 C19.482,22.041 18.852,22.037 18.278,22.030 C17.870,22.025 17.485,22.027 17.291,21.992 L16.786,21.464 C17.232,21.549 17.405,21.575 17.822,21.575 C18.809,21.575 19.443,21.410 19.653,21.356 C19.828,21.311 19.858,21.209 19.805,21.051 C19.722,20.798 19.576,20.558 19.354,20.300 C19.235,20.162 18.966,19.923 18.856,19.848 C18.720,19.756 18.588,19.733 18.216,19.859 C17.871,19.977 16.800,20.556 16.338,20.802 C16.110,20.923 15.932,20.959 15.523,20.862 C15.088,20.761 14.051,20.382 13.634,20.130 L14.090,19.941 C14.507,20.102 15.111,20.286 15.530,20.286 C15.783,20.286 15.992,20.195 16.163,20.119 C16.297,20.059 17.815,19.315 18.568,19.042 C18.807,18.954 19.050,18.906 19.169,18.906 ZM16.603,7.468 C16.818,7.468 16.992,7.642 16.992,7.857 C16.992,8.072 16.818,8.246 16.603,8.246 C16.388,8.246 16.214,8.072 16.214,7.857 C16.214,7.642 16.388,7.468 16.603,7.468 ZM17.488,2.509 C17.707,2.509 17.883,2.686 17.883,2.905 C17.883,3.123 17.707,3.300 17.488,3.300 C17.270,3.300 17.093,3.123 17.093,2.905 C17.093,2.686 17.270,2.509 17.488,2.509 ZM2.164,8.434 C2.704,7.851 3.738,7.087 4.406,6.807 L4.563,7.040 C3.994,7.623 2.941,8.401 2.382,8.671 L2.164,8.434 ZM3.178,1.810 C3.889,2.171 5.279,3.409 5.767,3.982 L5.492,4.322 C4.748,3.834 3.278,2.520 2.946,2.046 L3.178,1.810 ZM10.844,4.943 C10.690,6.562 9.163,6.771 8.176,6.003 C7.619,5.569 7.392,4.967 7.284,4.513 C7.171,4.033 7.171,3.603 6.697,3.109 C6.340,2.735 5.701,2.748 5.701,2.748 C5.701,1.572 4.601,0.495 3.235,1.016 C2.751,0.600 2.153,0.558 1.725,1.074 C1.475,1.373 1.338,2.160 2.107,2.520 C2.066,3.592 2.884,4.276 4.079,4.181 C4.126,4.751 4.757,5.280 5.317,5.356 L5.312,5.642 C4.715,5.585 4.392,5.794 3.994,6.287 C2.590,6.221 1.606,6.845 1.647,7.853 C0.660,8.040 0.475,9.074 1.035,9.624 C1.594,10.174 2.415,9.959 2.695,9.302 C3.690,9.491 4.570,8.778 4.610,7.955 C5.540,7.955 5.947,7.586 6.099,6.731 L6.450,6.760 C6.554,7.681 6.128,8.555 5.018,8.451 C4.989,9.550 3.923,10.165 2.927,9.785 C2.462,10.658 1.397,11.007 0.504,10.156 C-0.360,9.333 -0.044,7.924 1.085,7.583 C1.110,6.505 1.907,5.481 3.454,5.876 C3.454,5.876 3.652,5.394 4.136,5.365 C3.814,5.233 3.570,5.055 3.503,4.723 C2.336,4.972 1.345,3.898 1.611,2.816 C0.558,2.262 0.541,1.223 1.063,0.604 C1.607,-0.040 2.514,-0.181 3.325,0.512 C4.698,-0.249 6.251,0.683 6.156,2.247 C7.117,2.184 7.700,3.023 7.593,3.898 C7.752,3.513 7.937,3.334 8.292,3.257 C7.666,1.948 8.762,0.610 10.106,0.919 C10.377,0.269 11.377,-0.406 12.459,0.249 C13.322,0.771 13.505,2.120 12.587,2.774 C13.020,4.033 12.157,5.061 10.844,4.943 ZM12.018,0.879 C11.378,0.496 10.775,0.643 10.392,1.382 C9.366,1.308 8.385,2.114 8.767,3.464 C7.780,3.891 7.636,4.902 8.328,5.509 C9.162,6.241 10.538,5.604 10.405,4.485 C11.524,4.542 12.246,3.386 12.067,2.575 C12.566,2.148 12.615,1.237 12.018,0.879 ZM9.168,4.071 C9.652,3.284 10.690,1.984 11.126,1.586 L11.359,1.751 C10.908,2.702 10.111,3.712 9.428,4.267 L9.168,4.071 ZM64.635,10.893 C68.522,10.893 70.234,13.780 70.234,16.670 C70.234,17.285 69.936,17.647 69.270,17.647 L62.043,17.647 C62.121,18.947 63.153,20.120 64.642,20.120 C65.695,20.120 66.407,19.741 66.893,19.028 C67.045,18.805 67.298,18.657 67.606,18.657 L69.306,18.657 C69.696,18.658 69.884,19.023 69.824,19.301 C69.381,21.358 67.037,22.611 64.658,22.611 C61.182,22.611 59.023,19.830 59.023,16.671 C59.023,13.706 61.039,10.893 64.635,10.893 ZM67.223,15.435 C67.107,14.157 65.961,13.213 64.635,13.213 C63.307,13.213 62.181,14.157 62.065,15.435 L67.223,15.435 Z" class="cls-1"/>
</svg>
