<svg xmlns="http://www.w3.org/2000/svg" xmlns:xlink="http://www.w3.org/1999/xlink" preserveAspectRatio="xMidYMid" width="121.969" height="30.31" viewBox="0 0 121.969 30.31">
  <defs>
    <style>
      .cls-1 {
        fill: #fff;
        filter: url(#color-overlay-1);
        fill-rule: evenodd;
      }
    </style>

    <filter id="color-overlay-1" filterUnits="userSpaceOnUse">
      <feFlood flood-color="#fff"/>
      <feComposite operator="in" in2="SourceGraphic"/>
      <feBlend in2="SourceGraphic" result="solidFill"/>
    </filter>
  </defs>
  <path d="M60.981,30.319 C27.301,30.319 -0.003,30.116 -0.003,29.867 C-0.003,29.618 27.301,29.415 60.981,29.415 C94.662,29.415 121.965,29.618 121.965,29.867 C121.965,30.116 94.662,30.319 60.981,30.319 ZM103.976,9.573 C103.212,11.364 100.903,16.082 101.264,21.325 C101.264,21.325 98.281,21.505 98.823,17.166 C98.823,17.166 95.208,21.144 92.767,19.517 C92.006,19.010 91.731,18.164 91.784,17.158 C90.755,18.156 87.630,20.856 85.174,19.517 C84.412,19.101 83.913,18.382 83.673,17.482 C82.841,18.255 79.900,20.733 77.671,19.426 C74.869,17.708 81.311,7.469 81.311,7.469 L84.203,7.198 C84.203,7.198 78.304,17.980 80.654,18.070 C80.654,18.070 82.342,17.747 83.520,15.890 C83.622,13.362 85.208,10.161 88.338,7.855 C92.194,5.013 96.112,6.861 94.123,9.482 L92.134,10.205 C92.134,10.205 93.942,7.855 92.224,7.584 C90.507,7.313 86.258,12.917 86.620,16.715 C86.982,20.511 92.044,15.449 92.044,15.449 L92.059,15.666 C92.842,13.010 95.102,9.899 96.835,8.669 C98.770,7.295 100.662,6.469 105.091,7.102 L105.061,8.307 C105.061,8.307 104.564,8.194 103.976,9.573 ZM101.716,7.765 C97.919,7.494 93.129,18.522 95.298,18.070 C98.372,17.528 101.174,10.205 101.626,9.121 C102.078,8.036 101.716,7.765 101.716,7.765 ZM84.083,4.531 C83.483,4.213 83.323,3.340 83.725,2.579 C84.127,1.819 84.941,1.460 85.541,1.777 C86.142,2.095 86.301,2.969 85.900,3.730 C85.497,4.491 84.684,4.849 84.083,4.531 ZM73.784,20.782 C73.784,20.782 70.891,20.782 71.343,17.347 C71.795,13.912 74.597,11.381 74.778,9.121 C74.959,6.861 71.705,10.657 70.620,12.104 C69.535,13.550 67.094,17.528 66.733,19.336 L63.931,19.517 C63.931,19.517 67.547,11.742 67.908,9.934 C68.270,8.126 66.462,7.132 65.287,9.663 C64.185,12.036 62.213,19.607 56.888,19.762 C54.140,19.841 53.584,17.339 54.025,15.118 C54.542,12.518 55.891,10.123 58.236,8.759 L58.326,7.991 L54.545,7.991 C52.516,12.347 51.208,17.681 50.010,20.421 C48.111,24.759 44.676,23.946 44.676,23.946 C46.042,22.581 47.496,19.296 48.725,16.144 C44.659,20.163 37.375,21.940 38.620,15.358 C39.932,8.422 47.388,4.330 48.744,7.494 C49.037,10.856 44.364,13.627 42.565,14.564 C41.145,15.305 41.072,18.177 42.371,18.387 C45.064,18.823 48.279,15.573 49.433,14.287 C50.020,12.712 50.530,11.283 50.913,10.296 C51.217,9.516 51.561,8.733 51.910,7.991 L50.190,7.991 L52.496,7.177 C52.496,7.177 53.535,0.895 62.032,0.171 C62.032,0.171 66.100,-0.009 66.552,2.160 C67.008,4.349 63.931,5.324 63.931,5.324 C66.462,3.064 63.811,1.075 61.641,1.256 C56.157,1.738 55.184,7.132 55.184,7.132 L62.846,7.132 L62.665,7.403 C62.665,7.403 61.761,6.861 59.682,9.844 C57.603,11.833 56.066,17.799 57.964,18.341 C59.863,18.884 63.389,13.098 63.117,8.398 L69.987,6.861 C69.987,6.861 70.982,6.680 70.530,8.849 C70.078,11.019 70.168,11.381 71.524,9.482 C72.880,7.584 76.225,6.047 77.671,7.222 C78.033,7.765 77.761,10.205 76.225,12.917 C76.225,12.917 72.971,17.528 73.784,20.782 ZM42.326,13.550 C42.326,13.550 47.659,9.844 46.575,7.855 C44.676,7.132 42.055,12.104 42.326,13.550 ZM35.191,19.336 C35.165,20.465 35.245,21.325 35.245,21.325 C35.245,21.325 32.184,20.829 32.774,16.683 C29.098,20.179 22.685,21.704 23.885,15.358 C25.197,8.422 32.654,4.330 34.009,7.494 C34.302,10.856 29.630,13.627 27.830,14.564 C26.410,15.305 26.386,17.648 27.652,18.010 C29.472,18.530 32.699,15.411 33.618,14.514 C37.113,7.162 39.283,2.461 39.283,2.461 L41.874,2.100 C41.874,2.100 37.003,12.872 35.618,16.792 C35.325,17.624 35.212,18.458 35.191,19.336 ZM27.592,13.550 C27.592,13.550 32.925,9.844 31.840,7.855 C29.942,7.132 27.320,12.104 27.592,13.550 ZM27.170,1.979 C26.265,2.327 25.721,3.824 25.283,4.603 C23.726,7.377 22.617,10.423 21.525,13.401 C20.610,15.898 19.838,20.016 18.070,22.047 C16.044,24.376 13.245,23.818 13.245,23.818 C15.786,21.807 18.537,11.858 19.278,10.376 C20.019,8.895 21.183,5.402 22.665,4.026 C24.147,2.649 24.359,1.910 24.359,1.910 C9.329,1.486 12.293,9.530 12.293,9.530 C9.647,8.366 9.011,5.932 11.552,3.180 C15.044,-0.419 23.512,0.640 27.745,0.851 C31.979,1.063 36.530,0.004 36.530,0.004 C35.586,2.911 27.170,1.979 27.170,1.979 Z" class="cls-1"/>
</svg>
